<svg width="100" height="100" viewBox="0 0 100 100" fill="none" xmlns="http://www.w3.org/2000/svg">
<path fill-rule="evenodd" clip-rule="evenodd" d="M50 95.8333C24.687 95.8333 4.16669 75.313 4.16669 50C4.16669 24.6869 24.687 4.16666 50 4.16666C75.3131 4.16666 95.8334 24.6869 95.8334 50C95.8334 75.313 75.3131 95.8333 50 95.8333ZM80.8312 71.3527C85.0359 65.293 87.5 57.9342 87.5 50C87.5 29.2893 70.7107 12.5 50 12.5C29.2893 12.5 12.5 29.2893 12.5 50C12.5 57.9342 14.9641 65.293 19.1688 71.3527C23.8582 65.1586 34.8775 62.5 50 62.5C65.1225 62.5 76.1419 65.1586 80.8312 71.3527ZM74.8529 78.0823C73.6333 73.6973 64.8724 70.8333 50 70.8333C35.1276 70.8333 26.3667 73.6973 25.1472 78.0823C31.7638 83.9424 40.4664 87.5 50 87.5C59.5336 87.5 68.2363 83.9424 74.8529 78.0823ZM50 25C39.9129 25 33.3334 32.3157 33.3334 41.6667C33.3334 55.9474 40.6703 62.5 50 62.5C59.2421 62.5 66.6667 56.165 66.6667 42.5C66.6667 33.0066 60.0592 25 50 25ZM41.6667 41.6667C41.6667 51.1219 45.0759 54.1667 50 54.1667C54.9071 54.1667 58.3334 51.2433 58.3334 42.5C58.3334 37.2934 55.0653 33.3333 50 33.3333C44.7239 33.3333 41.6667 36.7326 41.6667 41.6667Z" fill="#3B2234"/>
</svg>
